# xmcd
#
# Track frame offsets: 
#        150
#        19024
#        37508
#        50503
#        63498
#        75650
#        89408
#        102403
#        116161
#        176928
#        191511
#        204506
#        219019
#        233461
#        246973
#        262677
#        277795
#        291530
#        303736
#        317690
#        337995
#
# Disc length: 4775 seconds
#
# Revision: 0
# Processed by: cddbd v1.5.2PL0 Copyright (c) Steve Scherf et al.
# Submitted via: ExactAudioCopy v0.95b3
#
DISCID=2112a515
DTITLE=The Beatles  - The Sgt Pepper Recording Sessions Reconstructed 
DTITLE=Outtakes and Outfakes - D 2
DYEAR=1900
DGENRE=
TTITLE0=Strawberry Fields Forever      Rs3
TTITLE1=Strawberry Fields Forever      Rs5
TTITLE2=PENNY LANE    Take 6
TTITLE3=PENNY LANE    SI onto take 6
TTITLE4=WHEN I'M SIXTY-FOUR     Mono mix
TTITLE5=PENNY LANE    SI onto take 7
TTITLE6=PENNY LANE    SI onto take 7
TTITLE7=PENNY LANE    SI onto take 7
TTITLE8=PENNY LANE    SI onto take 9
TTITLE9=PENNY LANE    SI onto take 9
TTITLE10=PENNY LANE    SI onto take 9
TTITLE11=PENNY LANE    SI onto take 9
TTITLE12=Penny Lane    Rm8
TTITLE13=PENNY LANE    SI onto take 9
TTITLE14=Penny Lane    Rm9
TTITLE15=Penny Lane    Rm10
TTITLE16=Penny Lane    Rm11
TTITLE17=A DAY IN THE LIFE    Take 1
TTITLE18=A DAY IN THE LIFE    Take 2
TTITLE19=A DAY IN THE LIFE    Take 4
TTITLE20=A DAY IN THE LIFE     SI onto take 4
EXTD=
EXTT0=
EXTT1=
EXTT2=
EXTT3=
EXTT4=
EXTT5=
EXTT6=
EXTT7=
EXTT8=
EXTT9=
EXTT10=
EXTT11=
EXTT12=
EXTT13=
EXTT14=
EXTT15=
EXTT16=
EXTT17=
EXTT18=
EXTT19=
EXTT20=
PLAYORDER=
